HIERARCHY
ROOT hip
{
	OFFSET 0.000000 0.000000 0.000000 
	CHANNELS 6 Xposition Yposition Zposition Zrotation Xrotation Yrotation
	JOINT abdomen
	{
		OFFSET 0.000000 3.402643 0.000000 
		CHANNELS 3 Zrotation Xrotation Yrotation
		JOINT chest
		{
			OFFSET 0.000000 8.438565 -0.680529 
			CHANNELS 3 Zrotation Xrotation Yrotation
			JOINT neck
			{
				OFFSET 0.000000 10.207942 -0.272212 
				CHANNELS 3 Zrotation Xrotation Yrotation
				JOINT head
				{
					OFFSET 0.000000 3.130431 0.000000 
					CHANNELS 3 Zrotation Xrotation Yrotation
					End Site
					{
						OFFSET 0.000000 3.130435 0.000000 
					}
				}
			}
			JOINT lCollar
			{
				OFFSET 3.470700 6.669187 -0.816635 
				CHANNELS 3 Zrotation Xrotation Yrotation
				JOINT lShldr
				{
					OFFSET 3.198488 0.000000 0.000000 
					CHANNELS 3 Zrotation Xrotation Yrotation
					JOINT lForeArm
					{
						OFFSET 10.139888 0.000000 0.000000 
						CHANNELS 3 Zrotation Xrotation Yrotation
						JOINT lHand
						{
							OFFSET 8.370511 0.000000 0.000000 
							CHANNELS 3 Zrotation Xrotation Yrotation
							End Site
							{
								OFFSET 4.083176 0.000000 0.000000 
							}
						}
					}
				}
			}
			JOINT rCollar
			{
				OFFSET -3.470700 6.669187 -0.816635 
				CHANNELS 3 Zrotation Xrotation Yrotation
				JOINT rShldr
				{
					OFFSET -3.198488 0.000000 0.000000 
					CHANNELS 3 Zrotation Xrotation Yrotation
					JOINT rForeArm
					{
						OFFSET -10.139888 0.000000 0.000000 
						CHANNELS 3 Zrotation Xrotation Yrotation
						JOINT rHand
						{
							OFFSET -8.370511 0.000000 0.000000 
							CHANNELS 3 Zrotation Xrotation Yrotation
							End Site
							{
								OFFSET -4.083176 0.000000 0.000000 
							}
						}
					}
				}
			}
		}
	}
	JOINT lThigh
	{
		OFFSET 5.308129 -1.633274 1.361059 
		CHANNELS 3 Zrotation Xrotation Yrotation
		JOINT lShin
		{
			OFFSET -2.041588 -20.007561 0.000000 
			CHANNELS 3 Zrotation Xrotation Yrotation
			JOINT lFoot
			{
				OFFSET 0.000000 -19.190928 -1.224953 
				CHANNELS 3 Zrotation Xrotation Yrotation
				End Site
				{
					OFFSET 0.000000 -2.449906 4.627600 
				}
			}
		}
	}
	JOINT rThigh
	{
		OFFSET -5.308129 -1.633274 1.361059 
		CHANNELS 3 Zrotation Xrotation Yrotation
		JOINT rShin
		{
			OFFSET 2.041588 -20.007561 0.000000 
			CHANNELS 3 Zrotation Xrotation Yrotation
			JOINT rFoot
			{
				OFFSET 0.000000 -19.190928 -1.224953 
				CHANNELS 3 Zrotation Xrotation Yrotation
				End Site
				{
					OFFSET 0.000000 -2.449906 4.627600 
				}
			}
		}
	}
}
MOTION
Frames: 16
Frame Time: 0.033333
0.000000 48.555595 0.291666 11.347212 66.919083 -8.418763 0.058595 -0.380859 0.000389 -3.772265 -16.158161 -0.650794 3.162815 -11.818418 -0.073720 -7.959190 -12.363960 -0.835858 -5.687575 -0.265913 1.982382 -48.775852 -14.015782 10.350448 -11.824849 -3.729219 -19.126183 4.436640 -24.010241 -3.694964 5.677635 -0.269442 -2.021281 54.983189 5.279734 -14.368904 16.472681 -14.817359 19.978790 -4.936583 -17.001160 3.497516 2.329277 -8.534695 0.588419 -1.343520 21.439592 -1.071124 -2.237655 34.556564 3.841907 -6.279884 -6.042800 -1.100703 -1.385527 22.599394 1.150683 1.699591 35.966419 -1.587221 
0.000000 48.443722 0.291666 11.347212 66.919083 -8.418763 0.361343 -0.517566 0.120452 -3.772265 -16.158161 -0.650794 3.162815 -11.818418 -0.073720 -7.959190 -12.363960 -0.835858 -5.677987 -0.261713 1.953264 -49.643749 -14.719005 10.514805 -11.998424 -3.655152 -19.164040 4.436640 -24.010241 -3.694964 5.677635 -0.269442 -2.021281 52.648674 6.036432 -12.894986 16.717207 -14.712734 20.151999 -4.866930 -17.005730 3.535510 2.202590 -8.798519 0.604814 -1.108515 22.272190 -1.163664 -2.391327 35.403576 3.438988 -5.732681 -6.175999 -1.112244 -1.375372 22.648113 1.170475 1.495491 37.999012 -1.049718 
0.000000 48.319508 0.291666 11.347212 66.919083 -8.418763 0.615270 -0.605432 0.231216 -3.772265 -16.158161 -0.650794 3.162815 -11.818418 -0.073720 -7.959190 -12.363960 -0.835858 -5.677835 -0.267605 1.914390 -50.298321 -15.392644 10.751327 -12.153596 -3.587659 -19.202005 4.436640 -24.010241 -3.694964 5.677635 -0.269442 -2.021281 50.394360 6.741542 -11.762160 16.964373 -14.613964 20.325176 -4.802610 -17.004839 3.565483 2.184643 -8.986877 0.580421 -0.946602 23.229431 -1.412557 -2.646935 36.373081 3.333536 -5.153903 -6.268706 -1.045263 -1.291295 22.706656 1.028464 1.283820 39.712639 -0.525220 
0.000000 48.190929 0.291666 11.347212 66.919083 -8.418763 0.703155 -0.527305 0.260378 -3.772265 -16.158161 -0.650794 3.162815 -11.818418 -0.073720 -7.959190 -12.363960 -0.835858 -5.668299 -0.262455 1.865832 -50.314774 -15.872911 11.142886 -12.311949 -3.529316 -19.238396 4.436640 -24.010241 -3.694964 5.677635 -0.269442 -2.021281 48.773476 7.220070 -11.754673 17.231308 -14.505325 20.504950 -4.718677 -16.994864 3.608927 2.433230 -9.218604 0.597894 -0.853581 23.650061 -1.252075 -2.572849 37.196301 2.962685 -4.602606 -6.242847 -0.859525 -1.588733 22.792816 1.185798 1.407763 40.922768 -0.481984 
0.000000 48.065971 0.291666 11.347212 66.919083 -8.418763 0.517582 -0.234365 0.187664 -3.772265 -16.158161 -0.650794 3.162815 -11.818418 -0.073720 -7.959190 -12.363960 -0.835858 -5.668178 -0.268365 1.817243 -49.380795 -16.031004 11.742030 -12.509907 -3.436589 -19.276606 4.436640 -24.010241 -3.694964 5.677635 -0.269442 -2.021281 48.211811 7.335005 -13.363306 17.487127 -14.387027 20.693523 -4.646063 -17.005074 3.640536 3.064932 -9.343244 0.739337 -0.826312 24.363001 -1.300502 -2.615047 37.473415 3.092252 -4.121327 -6.044132 -0.909123 -2.045825 22.904623 1.302293 1.218280 41.392807 -0.475237 
0.000000 47.952618 0.291666 11.347212 66.919083 -8.418763 0.156251 0.234373 0.038450 -3.772265 -16.158161 -0.650794 3.162815 -11.818418 -0.073720 -7.959190 -12.363960 -0.835858 -5.658718 -0.261308 1.758967 -47.812195 -15.951420 12.500373 -12.759932 -3.342887 -19.320492 4.436640 -24.010241 -3.694964 5.677635 -0.269442 -2.021281 48.573505 7.144809 -16.055735 17.752468 -14.275345 20.871254 -4.548186 -16.996098 3.691478 3.906068 -9.375037 0.961982 -0.782403 24.919752 -1.357850 -2.745699 38.065804 3.522475 -3.766895 -5.717232 -0.745831 -2.440742 23.045624 1.368807 1.227690 41.281925 -1.006365 
0.000000 47.858849 0.291666 11.347212 66.919083 -8.418763 -0.283226 0.742179 -0.133098 -3.772265 -16.158161 -0.650794 3.162815 -11.818418 -0.073720 -7.959190 -12.363960 -0.835858 -5.648932 -0.265009 1.700694 -46.072105 -15.747607 13.310999 -13.090384 -3.211273 -19.373329 4.436640 -24.010241 -3.694964 5.677635 -0.269442 -2.021281 49.594448 6.780973 -19.005171 17.999762 -14.169637 21.050489 -4.461308 -16.991753 3.728482 4.758679 -9.282931 1.163656 -0.787593 25.007473 -1.359454 -2.958602 38.425694 4.155717 -3.628961 -5.330910 -0.778749 -3.080038 23.160255 1.508568 1.082561 40.796673 -1.374959 
0.000000 47.792660 0.291666 11.347212 66.919083 -8.418763 -0.664211 1.210856 -0.279045 -3.772265 -16.158161 -0.650794 3.162815 -11.818418 -0.073720 -7.959190 -12.363960 -0.835858 -5.639433 -0.258964 1.642403 -44.616013 -15.517291 14.087969 -13.509953 -3.032961 -19.453773 4.436640 -24.010241 -3.694964 5.677635 -0.269442 -2.021281 51.026390 6.374522 -21.398508 18.233576 -14.057437 21.229065 -4.377657 -16.997271 3.773879 5.388018 -9.030939 1.371534 -0.668025 24.822592 -1.450003 -2.863268 38.827484 4.505699 -3.729865 -4.915182 -0.706914 -3.443815 23.276604 1.665983 1.033651 40.202999 -2.185761 
0.000000 47.762024 0.291666 11.347212 66.919083 -8.418763 -0.888986 1.523248 -0.357226 -3.772265 -16.158161 -0.650794 3.162815 -11.818418 -0.073720 -7.959190 -12.363960 -0.835858 -5.639427 -0.262965 1.584092 -43.884193 -15.390337 14.749228 -14.070071 -2.811717 -19.537336 4.436640 -24.010241 -3.694964 5.677635 -0.269442 -2.021281 52.676075 6.076021 -22.417870 18.456837 -13.960811 21.389805 -4.290765 -16.992907 3.810798 5.579647 -8.629447 1.311312 -0.650387 25.545364 -1.478503 -2.851691 38.173859 4.990766 -4.182451 -4.596107 -0.769761 -4.481054 23.302687 1.774139 1.355964 40.102848 -2.317292 
0.000000 47.772461 0.291666 11.347212 66.919083 -8.418763 -0.849945 1.611145 -0.347195 -3.772265 -16.158161 -0.650794 3.162815 -11.818418 -0.073720 -7.959190 -12.363960 -0.835858 -5.629939 -0.256946 1.516087 -44.200413 -15.441944 15.240517 -14.766713 -2.534269 -19.633537 4.436640 -24.010241 -3.694964 5.677635 -0.269442 -2.021281 54.353199 5.971342 -21.538662 18.648069 -13.870656 21.543409 -4.212455 -16.992943 3.848124 5.187753 -8.062163 1.259249 -0.318445 25.087824 -1.659606 -2.961305 39.139744 5.183756 -4.971179 -4.364713 -0.912785 -4.158134 23.346241 1.782687 0.932290 40.030502 -2.849580 
0.000000 47.819607 0.291666 11.347212 66.919083 -8.418763 -0.615441 1.484289 -0.267366 -3.772265 -16.158161 -0.650794 3.162815 -11.818418 -0.073720 -7.959190 -12.363960 -0.835858 -5.620219 -0.259758 1.457809 -45.308117 -15.687490 15.645687 -15.556147 -2.202828 -19.705976 4.436640 -24.010241 -3.694964 5.677635 -0.269442 -2.021281 55.940693 5.993987 -19.289282 18.827955 -13.786554 21.688232 -4.128524 -16.982914 3.891263 4.347456 -7.354163 1.078583 0.003300 25.039417 -1.764112 -3.086674 39.912209 5.349519 -5.922194 -4.214338 -1.099056 -4.285202 23.332775 1.849192 1.045859 40.530399 -3.031396 
0.000000 47.896622 0.291666 11.347212 66.919083 -8.418763 -0.253964 1.220690 -0.141118 -3.772265 -16.158161 -0.650794 3.162815 -11.818418 -0.073720 -7.959190 -12.363960 -0.835858 -5.610647 -0.255694 1.409231 -46.846909 -16.099453 16.076214 -16.379314 -1.861021 -19.723951 4.436640 -24.010241 -3.694964 5.677635 -0.269442 -2.021281 57.287567 6.040265 -16.451330 19.017944 -13.709784 21.822649 -4.058790 -16.987358 3.928978 3.349568 -6.614649 0.759711 0.122342 25.367287 -1.640523 -3.056491 40.505352 5.503697 -6.816852 -4.078452 -1.259297 -4.351044 23.381235 1.858171 1.015122 40.974201 -2.968024 
0.000000 47.996689 0.291666 11.347212 66.919083 -8.418763 0.136735 0.869139 0.007692 -3.772265 -16.158161 -0.650794 3.162815 -11.818418 -0.073720 -7.959190 -12.363960 -0.835858 -5.610862 -0.250916 1.360646 -48.432606 -16.665737 16.666460 -17.205564 -1.517642 -19.651300 4.436640 -24.010241 -3.694964 5.677635 -0.269442 -2.021281 58.277748 6.020031 -13.847403 19.237612 -13.614178 21.971313 -4.005367 -16.991608 3.944840 2.454354 -5.902732 0.693507 0.625044 25.312252 -1.983858 -3.245890 41.217384 5.404727 -7.403067 -3.918758 -1.374567 -4.248557 23.517811 1.855291 0.918498 41.640110 -2.761997 
0.000000 48.112961 0.291666 11.347212 66.919083 -8.418763 0.488299 0.488262 0.132641 -3.772265 -16.158161 -0.650794 3.162815 -11.818418 -0.073720 -7.959190 -12.363960 -0.835858 -5.601086 -0.254724 1.312073 -49.699543 -17.341516 17.529800 -17.969107 -1.196344 -19.464600 4.436640 -24.010241 -3.694964 5.677635 -0.269442 -2.021281 58.786644 5.841171 -12.261913 19.499327 -13.498103 22.112103 -3.957930 -16.983957 3.973273 1.771818 -5.224353 0.566011 0.912741 25.542200 -1.957588 -3.153506 41.606270 5.113600 -7.498609 -3.656663 -1.407048 -4.268655 23.792686 1.871743 1.014459 41.972286 -2.411858 
0.000000 48.238621 0.291666 11.347212 66.919083 -8.418763 0.722658 0.117179 0.223255 -3.772265 -16.158161 -0.650794 3.162815 -11.818418 -0.073720 -7.959190 -12.363960 -0.835858 -5.591495 -0.250699 1.273214 -50.342613 -18.094473 18.710939 -18.636641 -0.924442 -19.137074 4.436640 -24.010241 -3.694964 5.677635 -0.269442 -2.021281 58.737686 5.478335 -12.263911 19.810623 -13.361378 22.264311 -3.930058 -16.985329 3.988333 1.583763 -4.764015 0.506300 1.241772 25.950533 -2.019893 -3.222705 41.896114 4.839530 -6.923105 -3.295189 -1.343762 -4.414620 24.290354 1.789117 0.960904 41.920170 -1.720396 
0.000000 48.366825 0.291666 11.347212 66.919083 -8.418763 0.830082 -0.175763 0.266218 -3.772265 -16.158161 -0.650794 3.162815 -11.818418 -0.073720 -7.959190 -12.363960 -0.835858 -5.591623 -0.248794 1.244055 -50.501835 -18.785160 19.920630 -19.230476 -0.693661 -18.727320 4.436640 -24.010241 -3.694964 5.677635 -0.269442 -2.021281 58.233517 5.004461 -13.421254 20.185659 -13.196840 22.445038 -3.907516 -16.981922 3.995393 1.713533 -4.440529 0.462692 1.285342 26.460024 -2.222216 -3.272506 41.570881 4.746340 -5.927771 -2.823597 -1.203089 -4.564345 24.894526 2.009194 1.028026 41.719105 -1.161070 
